<?xml version="1.0" encoding="utf-8"?>
<!-- Generator: Adobe Illustrator 16.0.0, SVG Export Plug-In . SVG Version: 6.00 Build 0)  -->
<!DOCTYPE svg PUBLIC "-//W3C//DTD SVG 1.1//EN" "http://www.w3.org/Graphics/SVG/1.1/DTD/svg11.dtd">
<svg version="1.1" id="Isolation_Mode" xmlns="http://www.w3.org/2000/svg" xmlns:xlink="http://www.w3.org/1999/xlink" x="0px"
	 y="0px" width="180.125px" height="30px" viewBox="0 0 180.125 30" enable-background="new 0 0 180.125 30" xml:space="preserve">
<g id="Logo_1_">
	<path fill="#FFFFFF" d="M20.181,16.065c-0.373,1.61-1.049,3.102-2.012,4.446c-1.021,1.421-2.303,2.59-3.809,3.477
		c-0.254-0.186-0.5-0.386-0.738-0.597c0.428-0.435,0.814-0.894,1.154-1.369c0.953-1.326,1.607-2.814,1.945-4.429
		C17.942,17.251,19.103,16.738,20.181,16.065"/>
	<path fill="#FFFFFF" d="M1.226,4.104c0.611,2.053,1.752,3.882,3.32,5.32c-0.326,1.341-0.438,2.713-0.338,4.095
		C1.665,11.258,0.121,7.993,0,4.577C0.386,4.398,0.798,4.241,1.226,4.104"/>
	<path fill="#FFFFFF" d="M25.005,4.148c0.443,0.149,0.873,0.324,1.285,0.524c-0.051,1.182-0.268,2.348-0.645,3.469
		c-0.814,2.422-2.977,4.486-4.803,5.878l-0.424,0.302c-1.266,0.904-2.656,1.557-4.133,1.942c-1.246,0.326-2.225,0.47-3.174,0.47
		c-0.801,0-1.617-0.107-2.486-0.33c-0.219-1.383-0.18-2.806,0.123-4.149c0.824,0.214,1.605,0.321,2.377,0.321
		c0.967,0,1.955-0.16,3.207-0.516c1.586-0.453,3.045-1.233,4.342-2.321c1.707-1.459,3.543-3.223,4.219-5.233
		C24.935,4.386,24.97,4.266,25.005,4.148"/>
	<path fill="#FFFFFF" d="M18.784,0c2.014,0,4.002,0.524,5.906,1.558c-0.037,0.534-0.119,1.072-0.242,1.608
		c-0.969-0.25-1.963-0.377-2.963-0.377c-1.133,0-2.252,0.163-3.332,0.485c-0.068-0.073-0.137-0.149-0.205-0.225
		c-0.465-0.509-0.99-1.085-1.561-1.496c-0.512-0.367-0.918-0.651-1.391-0.911C16.235,0.215,17.503,0,18.784,0"/>
	<path fill="#FFFFFF" d="M7.774,0.095L7.774,0.095c1.645,0,3.229,0.254,4.629,0.74l0.688,0.305c0.803,0.358,1.547,0.781,2.209,1.257
		c0.643,0.461,1.252,0.997,1.814,1.594c1.512,1.602,2.312,2.946,2.801,4.722c-1.059,0.866-2.281,1.536-3.566,1.955
		c-0.521-1.764-1.396-3.095-3.025-4.64c-0.445-0.423-0.84-0.754-1.236-1.04c-0.992-0.712-2.086-1.262-3.254-1.638L8.829,3.348
		L8.823,3.347C7.661,3.007,6.229,2.82,4.796,2.82c-1.1,0-2.131,0.108-3.012,0.314C1.667,2.602,1.589,2.051,1.552,1.488
		C3.294,0.589,5.493,0.095,7.774,0.095"/>
	<path fill="#FFFFFF" d="M8.44,4.588c1.002,0.347,1.947,0.835,2.805,1.452c0.279,0.2,0.559,0.426,0.857,0.695
		c-1.496,1.525-2.125,3.032-2.59,4.8c-0.418,1.595-0.49,3.257-0.209,4.937l0.031,0.197l0.014,0.006
		c0.203,1.046,0.812,3.721,1.98,5.349c0.34,0.474,0.729,0.932,1.156,1.367c-0.24,0.211-0.486,0.411-0.74,0.597
		c-1.506-0.884-2.785-2.054-3.807-3.477c-1.174-1.634-1.906-4.239-2.199-6.13l-0.023-0.163L5.7,14.209
		c-0.213-1.628-0.113-3.249,0.299-4.82C6.476,7.568,7.058,6.117,8.44,4.588"/>
	<polygon fill="#FFFFFF" points="51.177,16.724 44.884,16.724 44.884,15.642 46.944,15.642 46.944,10.467 39.341,10.467 
		39.341,15.642 41.431,15.642 41.431,16.724 35.136,16.724 35.136,15.642 37.224,15.642 37.224,4.296 35.136,4.296 35.136,3.214 
		41.431,3.214 41.431,4.296 39.341,4.296 39.341,9.296 46.944,9.296 46.944,4.296 44.884,4.296 44.884,3.214 51.177,3.214 
		51.177,4.296 49.089,4.296 49.089,15.642 51.177,15.642 	"/>
	<path fill="#FFFFFF" d="M67.388,5.844h-1.934v6.523c0,2.784-2.01,4.692-4.949,4.692c-2.76,0-4.77-1.778-4.77-4.202V5.844h-1.959
		V4.813h5.852v1.031h-1.961v6.471c0,2.115,1.264,3.558,3.146,3.558c1.934,0,3.326-1.495,3.326-3.583V5.844h-1.934V4.813h5.182V5.844
		z"/>
	<polygon fill="#FFFFFF" points="81.438,16.931 80.664,16.931 73.188,8.165 73.188,15.771 75.147,15.771 75.147,16.725 
		69.966,16.725 69.966,15.771 71.899,15.771 71.899,6.514 71.384,5.845 69.579,5.845 69.579,4.812 72.905,4.812 80.148,13.218 
		80.148,5.845 78.189,5.845 78.189,4.812 83.371,4.812 83.371,5.845 81.438,5.845 	"/>
	<path fill="#FFFFFF" d="M96.803,16.209c-1.83,0.645-2.914,0.851-4.383,0.851c-3.893,0-6.703-2.631-6.703-6.266
		c0-3.584,2.887-6.291,6.65-6.291c1.008,0,1.779,0.155,3.25,0.644V4.452h0.953V7.52h-0.953V6.334
		c-1.16-0.593-1.959-0.825-2.965-0.825c-2.707,0-4.719,2.166-4.719,5.053c0,3.197,2.166,5.466,5.234,5.466
		c0.516,0,0.877-0.051,1.701-0.258v-2.991h-1.961v-0.953h5.854v0.953h-1.959V16.209z"/>
	<polygon fill="#FFFFFF" points="110.338,16.724 101.107,16.724 101.107,15.77 103.041,15.77 103.041,5.767 101.107,5.767 
		101.107,4.813 109.203,4.813 109.203,4.297 110.156,4.297 110.156,7.184 109.229,7.184 109.229,5.844 105.002,5.844 105.002,10.15 
		108.301,10.15 108.301,8.912 109.256,8.886 109.256,12.47 108.301,12.47 108.301,11.181 105.002,11.181 105.002,15.693 
		109.385,15.693 109.385,14.326 110.338,14.326 	"/>
	<path fill="#FFFFFF" d="M125.602,16.724h-1.883c-1.135,0-1.342-0.103-1.986-1.083l-2.758-4.151h-1.264v4.28h1.934v0.954h-5.826
		v-0.954h1.934V5.845h-1.934V4.813h6.084c2.5,0,3.842,1.108,3.842,3.196c0,1.728-1.057,2.992-2.76,3.301l2.398,3.506
		c0.465,0.645,0.928,0.954,1.496,0.954h0.723V16.724z M117.711,10.459h1.83c1.238,0,2.037-0.954,2.037-2.372
		c0-1.443-0.723-2.242-2.062-2.242h-1.805V10.459z"/>
	<polygon fill="#FFFFFF" points="133.566,16.724 127.74,16.724 127.74,15.77 129.672,15.77 129.672,5.767 127.74,5.767 
		127.74,4.813 135.834,4.813 135.834,4.297 136.789,4.297 136.789,7.184 135.861,7.184 135.861,5.844 131.633,5.844 131.633,10.15 
		134.934,10.15 134.934,8.912 135.887,8.886 135.887,12.47 134.934,12.47 134.934,11.181 131.633,11.181 131.633,15.77 
		133.566,15.77 	"/>
	<path fill="#FFFFFF" d="M139.367,10.743c0-3.352,2.836-6.239,6.137-6.239c3.246,0,6.082,2.913,6.082,6.239
		c0,3.377-2.836,6.317-6.082,6.317C142.203,17.06,139.367,14.146,139.367,10.743 M141.584,10.743c0,2.914,1.727,5.233,3.893,5.233
		c2.191,0,3.92-2.293,3.92-5.207c0-2.888-1.754-5.182-3.92-5.182S141.584,7.881,141.584,10.743"/>
	<path fill="#FFFFFF" d="M165.507,16.724h-1.883c-1.133,0-1.34-0.103-1.984-1.083l-2.76-4.151h-1.262v4.28h1.934v0.954h-5.826
		v-0.954h1.932V5.845h-1.932V4.813h6.084c2.5,0,3.842,1.108,3.842,3.196c0,1.728-1.059,2.992-2.76,3.301l2.398,3.506
		c0.465,0.645,0.928,0.954,1.496,0.954h0.721V16.724z M157.618,10.459h1.83c1.238,0,2.037-0.954,2.037-2.372
		c0-1.443-0.723-2.242-2.062-2.242h-1.805V10.459z"/>
	<path fill="#FFFFFF" d="M167.774,15.771h1.934V5.767h-1.934V4.813h6.111c3.507,0,6.239,2.629,6.239,5.956
		c0,3.402-2.68,5.955-6.239,5.955h-6.111V15.771z M173.679,15.693c2.398,0,4.229-2.115,4.229-4.899c0-2.784-1.831-4.95-4.204-4.95
		h-2.037v9.849H173.679z"/>
	<path fill="#FFFFFF" d="M38.933,29.816h-2.889v-0.52h0.959V23.88h-0.959v-0.563h3.094c1.139,0,1.854,0.732,1.854,1.899
		c0,1.183-0.869,2.04-2.059,2.04c-0.191,0-0.295-0.014-0.537-0.057V26.75c0.115,0.014,0.166,0.027,0.256,0.027
		c0.729,0,1.266-0.632,1.266-1.49c0-0.901-0.434-1.407-1.201-1.407h-0.742v5.416h0.959V29.816z"/>
	<path fill="#FFFFFF" d="M49.763,29.816h-0.934c-0.562,0-0.664-0.056-0.984-0.591l-1.369-2.264h-0.625v2.335h0.959v0.52h-2.891
		v-0.52h0.959V23.88h-0.959v-0.563h3.018c1.24,0,1.906,0.605,1.906,1.745c0,0.942-0.525,1.632-1.369,1.801l1.189,1.912
		c0.23,0.353,0.461,0.521,0.74,0.521h0.359V29.816z M45.851,26.398h0.908c0.613,0,1.01-0.521,1.01-1.295
		c0-0.787-0.359-1.223-1.023-1.223h-0.895V26.398z"/>
	<path fill="#FFFFFF" d="M52.14,26.553c0-1.828,1.406-3.404,3.045-3.404c1.609,0,3.016,1.59,3.016,3.404
		c0,1.843-1.406,3.447-3.016,3.447C53.546,30,52.14,28.41,52.14,26.553 M53.239,26.553c0,1.59,0.855,2.856,1.932,2.856
		c1.086,0,1.943-1.252,1.943-2.841c0-1.575-0.871-2.829-1.943-2.829C54.095,23.739,53.239,24.993,53.239,26.553"/>
	<path fill="#FFFFFF" d="M64.185,29.816h-2.889v-0.52h0.957V23.88h-0.957v-0.563h3.094c1.137,0,1.852,0.732,1.852,1.899
		c0,1.183-0.867,2.04-2.057,2.04c-0.191,0-0.295-0.014-0.537-0.057V26.75c0.115,0.014,0.166,0.027,0.256,0.027
		c0.729,0,1.266-0.632,1.266-1.49c0-0.901-0.434-1.407-1.201-1.407h-0.742v5.416h0.959V29.816z"/>
	<polygon fill="#FFFFFF" points="73.735,29.816 69.157,29.816 69.157,29.296 70.116,29.296 70.116,23.838 69.157,23.838 
		69.157,23.317 73.171,23.317 73.171,23.037 73.646,23.037 73.646,24.611 73.187,24.611 73.187,23.88 71.089,23.88 71.089,26.23 
		72.726,26.23 72.726,25.555 73.198,25.54 73.198,27.496 72.726,27.496 72.726,26.792 71.089,26.792 71.089,29.253 73.263,29.253 
		73.263,28.507 73.735,28.507 	"/>
	<path fill="#FFFFFF" d="M82.773,29.816H81.84c-0.562,0-0.666-0.056-0.984-0.591l-1.369-2.264h-0.625v2.335h0.959v0.52h-2.89v-0.52
		h0.958V23.88h-0.958v-0.563h3.017c1.24,0,1.906,0.605,1.906,1.745c0,0.942-0.525,1.632-1.369,1.801l1.189,1.912
		c0.23,0.353,0.461,0.521,0.742,0.521h0.357V29.816z M78.861,26.398h0.908c0.613,0,1.01-0.521,1.01-1.295
		c0-0.787-0.359-1.223-1.023-1.223h-0.895V26.398z"/>
	<polygon fill="#FFFFFF" points="88.924,29.816 85.777,29.816 85.777,29.296 86.865,29.296 86.865,23.88 84.998,23.88 
		84.998,24.668 84.537,24.668 84.537,23.037 84.998,23.037 84.998,23.317 89.703,23.317 89.703,23.037 90.176,23.037 90.176,24.668 
		89.703,24.668 89.703,23.88 87.836,23.88 87.836,29.296 88.924,29.296 	"/>
	<polygon fill="#FFFFFF" points="95.533,29.816 92.645,29.816 92.645,29.296 93.604,29.296 93.604,23.88 92.645,23.88 
		92.645,23.317 95.533,23.317 95.533,23.88 94.574,23.88 94.574,29.296 95.533,29.296 	"/>
	<polygon fill="#FFFFFF" points="103.422,29.816 98.846,29.816 98.846,29.296 99.803,29.296 99.803,23.838 98.846,23.838 
		98.846,23.317 102.859,23.317 102.859,23.037 103.334,23.037 103.334,24.611 102.873,24.611 102.873,23.88 100.775,23.88 
		100.775,26.23 102.412,26.23 102.412,25.555 102.885,25.54 102.885,27.496 102.412,27.496 102.412,26.792 100.775,26.792 
		100.775,29.253 102.949,29.253 102.949,28.507 103.422,28.507 	"/>
	<path fill="#FFFFFF" d="M107.064,29.9h-0.471v-1.758h0.471v0.731c0.512,0.339,0.869,0.464,1.305,0.464
		c0.641,0,1.102-0.393,1.102-0.942c0-0.534-0.346-0.9-1.408-1.491c-1.125-0.619-1.508-1.111-1.508-1.941
		c0-1.013,0.805-1.814,1.828-1.814c0.422,0,0.793,0.097,1.164,0.323v-0.352h0.473v1.688h-0.473v-0.703
		c-0.5-0.295-0.729-0.366-1.074-0.366c-0.602,0-0.998,0.366-0.998,0.944c0,0.364,0.141,0.561,0.574,0.843
		c0.334,0.21,0.641,0.408,0.91,0.577c1.098,0.674,1.404,1.125,1.404,2.039c0,1.056-0.791,1.857-1.854,1.857
		c-0.484,0-0.945-0.155-1.445-0.464V29.9z"/>
	<path fill="#FFFFFF" d="M20.181,16.065c-0.373,1.61-1.049,3.102-2.012,4.446c-1.021,1.421-2.303,2.59-3.809,3.477
		c-0.254-0.186-0.5-0.386-0.738-0.597c0.428-0.435,0.814-0.894,1.154-1.369c0.953-1.326,1.607-2.814,1.945-4.429
		C17.942,17.251,19.103,16.738,20.181,16.065"/>
	<path fill="#FFFFFF" d="M1.226,4.104c0.611,2.053,1.752,3.882,3.32,5.32c-0.326,1.341-0.438,2.713-0.338,4.095
		C1.665,11.258,0.121,7.993,0,4.577C0.386,4.398,0.798,4.241,1.226,4.104"/>
	<path fill="#FFFFFF" d="M25.005,4.148c0.443,0.149,0.873,0.324,1.285,0.524c-0.051,1.182-0.268,2.348-0.645,3.469
		c-0.814,2.422-2.977,4.486-4.803,5.878l-0.424,0.302c-1.266,0.904-2.656,1.557-4.133,1.942c-1.246,0.326-2.225,0.47-3.174,0.47
		c-0.801,0-1.617-0.107-2.486-0.33c-0.219-1.383-0.18-2.806,0.123-4.149c0.824,0.214,1.605,0.321,2.377,0.321
		c0.967,0,1.955-0.16,3.207-0.516c1.586-0.453,3.045-1.233,4.342-2.321c1.707-1.459,3.543-3.223,4.219-5.233
		C24.935,4.386,24.97,4.266,25.005,4.148"/>
	<path fill="#FFFFFF" d="M18.784,0c2.014,0,4.002,0.524,5.906,1.558c-0.037,0.534-0.119,1.072-0.242,1.608
		c-0.969-0.25-1.963-0.377-2.963-0.377c-1.133,0-2.252,0.163-3.332,0.485c-0.068-0.073-0.137-0.149-0.205-0.225
		c-0.465-0.509-0.99-1.085-1.561-1.496c-0.512-0.367-0.918-0.651-1.391-0.911C16.235,0.215,17.503,0,18.784,0"/>
	<path fill="#FFFFFF" d="M7.774,0.095L7.774,0.095c1.645,0,3.229,0.254,4.629,0.74l0.688,0.305c0.803,0.358,1.547,0.781,2.209,1.257
		c0.643,0.461,1.252,0.997,1.814,1.594c1.512,1.602,2.312,2.946,2.801,4.722c-1.059,0.866-2.281,1.536-3.566,1.955
		c-0.521-1.764-1.396-3.095-3.025-4.64c-0.445-0.423-0.84-0.754-1.236-1.04c-0.992-0.712-2.086-1.262-3.254-1.638L8.829,3.348
		L8.823,3.347C7.661,3.007,6.229,2.82,4.796,2.82c-1.1,0-2.131,0.108-3.012,0.314C1.667,2.602,1.589,2.051,1.552,1.488
		C3.294,0.589,5.493,0.095,7.774,0.095"/>
	<path fill="#FFFFFF" d="M8.44,4.588c1.002,0.347,1.947,0.835,2.805,1.452c0.279,0.2,0.559,0.426,0.857,0.695
		c-1.496,1.525-2.125,3.032-2.59,4.8c-0.418,1.595-0.49,3.257-0.209,4.937l0.031,0.197l0.014,0.006
		c0.203,1.046,0.812,3.721,1.98,5.349c0.34,0.474,0.729,0.932,1.156,1.367c-0.24,0.211-0.486,0.411-0.74,0.597
		c-1.506-0.884-2.785-2.054-3.807-3.477c-1.174-1.634-1.906-4.239-2.199-6.13l-0.023-0.163L5.7,14.209
		c-0.213-1.628-0.113-3.249,0.299-4.82C6.476,7.568,7.058,6.117,8.44,4.588"/>
</g>
</svg>
